<?xml version="1.0" encoding="utf-8"?>
<!-- Generator: Adobe Illustrator 27.8.0, SVG Export Plug-In . SVG Version: 6.00 Build 0)  -->
<svg version="1.1" id="Layer_1" xmlns="http://www.w3.org/2000/svg" xmlns:xlink="http://www.w3.org/1999/xlink" x="0px" y="0px"
	 viewBox="0 0 350 59.1" style="enable-background:new 0 0 350 59.1;" xml:space="preserve">
<style type="text/css">
	.st0{fill:#FFFFFF;}
</style>
<g>
	<path class="st0" d="M48.8,45.1c-1.5,0.7-4.6,1.8-8.2,1.8c-4,0-7.3-1.3-10-4.3c-2.3-2.7-3.7-7-3.7-12.1c0-9.7,5.5-16.8,14.4-16.8
		c3.1,0,5.5,0.8,6.6,1.5l-0.8,3.4c-1.4-0.8-3.2-1.4-5.9-1.4c-6.5,0-10.7,4.9-10.7,13.1c0,8.2,4.1,13.1,10.3,13.1
		c2.3,0,3.8-0.4,4.6-0.9v-9.7H40v-3.4h8.8V45.1z"/>
	<path class="st0" d="M53.9,30.5c0-2.7,0-5.1-0.2-7.3h3l0.1,4.6h0.2c0.9-3.1,3-5.1,5.3-5.1c0.4,0,0.7,0,1,0.1v4
		c-0.4-0.1-0.7-0.1-1.2-0.1c-2.4,0-4.2,2.3-4.7,5.5c-0.1,0.6-0.2,1.3-0.2,2v12.4h-3.4V30.5z"/>
	<path class="st0" d="M70.9,16.6c0,1.4-0.8,2.6-2.2,2.6c-1.2,0-2.1-1.2-2.1-2.6c0-1.5,0.9-2.7,2.2-2.7C70.1,14,70.9,15.1,70.9,16.6z
		 M67,46.5V23.2h3.5v23.3H67z"/>
	<path class="st0" d="M92.8,12.3v28.2c0,2.1,0,4.4,0.2,6h-3.1l-0.2-4.1h-0.1C88.5,45.1,86.2,47,83,47c-4.6,0-8.2-4.8-8.2-11.9
		c0-7.8,3.9-12.5,8.6-12.5c2.9,0,4.9,1.7,5.8,3.6h0.1V12.3H92.8z M89.3,32.7c0-0.5,0-1.3-0.2-1.8c-0.5-2.7-2.4-4.9-5-4.9
		c-3.6,0-5.7,3.9-5.7,9c0,4.7,1.9,8.6,5.6,8.6c2.3,0,4.5-1.9,5.1-5.1c0.1-0.6,0.2-1.2,0.2-1.8V32.7z"/>
	<path class="st0" d="M115,31.9V35h-9.8v-3.1H115z"/>
	<path class="st0" d="M127.5,14h14.3v3.5H131v10.8H141v3.5H131v14.7h-3.4V14z"/>
	<path class="st0" d="M146,12.3h3.5v34.2H146V12.3z"/>
	<path class="st0" d="M157.2,35.6c0.1,5.7,3.1,8.1,6.6,8.1c2.5,0,4-0.5,5.3-1.2l0.6,3c-1.2,0.7-3.3,1.4-6.4,1.4
		c-5.9,0-9.4-4.7-9.4-11.8c0-7,3.4-12.6,9-12.6c6.2,0,7.9,6.7,7.9,11c0,0.9-0.1,1.5-0.1,2H157.2z M167.4,32.6c0-2.7-0.9-6.9-4.8-6.9
		c-3.5,0-5.1,4-5.3,6.9H167.4z"/>
	<path class="st0" d="M176.6,23.2l2.7,5c0.7,1.3,1.3,2.5,1.9,3.8h0.1c0.6-1.4,1.3-2.6,1.9-3.9l2.7-5h3.8l-6.5,11.3l6.7,12.1h-4
		l-2.8-5.3c-0.8-1.4-1.4-2.7-2.1-4.1H181c-0.6,1.4-1.3,2.7-2,4.1l-2.8,5.3h-3.8l6.8-11.9l-6.5-11.4H176.6z"/>
	<path class="st0" d="M193.1,46.5c0.1-1.6,0.2-4,0.2-6V12.3h3.4v14.7h0.1c1.2-2.6,3.4-4.3,6.5-4.3c4.7,0,8.1,4.8,8.1,11.9
		c0,8.3-4.3,12.5-8.6,12.5c-2.8,0-5-1.3-6.4-4.4h-0.1l-0.2,3.9H193.1z M196.7,37.2c0,0.5,0.1,1.1,0.2,1.5c0.7,2.9,2.7,5,5.2,5
		c3.6,0,5.8-3.6,5.8-9c0-4.7-2-8.7-5.7-8.7c-2.4,0-4.6,2-5.3,5.2c-0.1,0.5-0.2,1.1-0.2,1.7V37.2z"/>
	<path class="st0" d="M233,34.7c0,8.6-4.9,12.4-9.5,12.4c-5.2,0-9.2-4.6-9.2-12c0-7.8,4.2-12.4,9.5-12.4
		C229.3,22.6,233,27.5,233,34.7z M217.9,34.9c0,5.1,2.4,9,5.8,9c3.3,0,5.8-3.8,5.8-9.1c0-4-1.6-9-5.7-9S217.9,30.5,217.9,34.9z"/>
	<path class="st0" d="M238.5,23.2l2.7,5c0.7,1.3,1.3,2.5,1.9,3.8h0.1c0.6-1.4,1.3-2.6,1.9-3.9l2.7-5h3.8l-6.5,11.3l6.7,12.1h-4
		l-2.8-5.3c-0.8-1.4-1.4-2.7-2.1-4.1h-0.1c-0.6,1.4-1.3,2.7-2,4.1l-2.8,5.3h-3.8l6.8-11.9l-6.5-11.4H238.5z"/>
	<path class="st0" d="M282.3,45.5c-1.3,0.8-3.8,1.5-7,1.5c-7.5,0-13.2-5.8-13.2-16.4c0-10.2,5.6-17.1,13.9-17.1
		c3.3,0,5.4,0.9,6.3,1.4l-0.8,3.4c-1.3-0.8-3.2-1.4-5.4-1.4c-6.2,0-10.4,4.9-10.4,13.4c0,8,3.8,13.1,10.2,13.1
		c2.1,0,4.2-0.5,5.6-1.4L282.3,45.5z"/>
	<path class="st0" d="M286.1,41.4c1.5,1.2,3.8,2.1,6.2,2.1c3.5,0,5.6-2.3,5.6-5.5c0-3-1.4-4.8-5-6.5c-4.3-1.9-7-4.6-7-9.2
		c0-5.1,3.4-8.8,8.6-8.8c2.7,0,4.7,0.8,5.9,1.6l-0.9,3.4c-0.9-0.6-2.6-1.5-5.1-1.5c-3.6,0-5,2.7-5,4.9c0,3,1.6,4.5,5.3,6.3
		c4.5,2.1,6.8,4.8,6.8,9.6c0,5-3,9.4-9.3,9.4c-2.6,0-5.4-0.9-6.8-2.1L286.1,41.4z"/>
	<path class="st0" d="M305.6,41.4c1.5,1.2,3.8,2.1,6.2,2.1c3.5,0,5.6-2.3,5.6-5.5c0-3-1.4-4.8-5-6.5c-4.3-1.9-7-4.6-7-9.2
		c0-5.1,3.4-8.8,8.6-8.8c2.7,0,4.7,0.8,5.9,1.6l-0.9,3.4c-0.9-0.6-2.6-1.5-5.1-1.5c-3.6,0-5,2.7-5,4.9c0,3,1.6,4.5,5.3,6.3
		c4.5,2.1,6.8,4.8,6.8,9.6c0,5-3,9.4-9.3,9.4c-2.6,0-5.4-0.9-6.8-2.1L305.6,41.4z"/>
</g>
</svg>
